<mxfile host="app.diagrams.net" modified="2024-03-31T19:40:43.558Z" agent="Mozilla/5.0 (Windows NT 10.0; Win64; x64) AppleWebKit/537.36 (KHTML, like Gecko) Chrome/123.0.0.0 Safari/537.36" etag="pscWR13u6TjjJ-LwmZnE" version="24.2.1" type="github">
  <diagram name="Page-1" id="zBT5IYny-PMyOm3jP_y7">
    <mxGraphModel dx="1430" dy="757" grid="0" gridSize="10" guides="1" tooltips="1" connect="1" arrows="1" fold="1" page="1" pageScale="1" pageWidth="1100" pageHeight="850" math="0" shadow="0">
      <root>
        <mxCell id="0" />
        <mxCell id="1" parent="0" />
        <mxCell id="9JRsw504FIrq7UwuTLi8-1" value="OPNsense" style="shape=cylinder3;whiteSpace=wrap;html=1;boundedLbl=1;backgroundOutline=1;size=15;" vertex="1" parent="1">
          <mxGeometry x="512.5" y="109" width="75" height="93" as="geometry" />
        </mxCell>
        <mxCell id="9JRsw504FIrq7UwuTLi8-2" value="Midco Modem" style="rounded=1;whiteSpace=wrap;html=1;" vertex="1" parent="1">
          <mxGeometry x="490" y="16" width="120" height="60" as="geometry" />
        </mxCell>
        <mxCell id="9JRsw504FIrq7UwuTLi8-3" value="" style="endArrow=none;html=1;rounded=0;entryX=0.5;entryY=1;entryDx=0;entryDy=0;exitX=0.5;exitY=0;exitDx=0;exitDy=0;exitPerimeter=0;" edge="1" parent="1" source="9JRsw504FIrq7UwuTLi8-1" target="9JRsw504FIrq7UwuTLi8-2">
          <mxGeometry width="50" height="50" relative="1" as="geometry">
            <mxPoint x="547.5" y="110" as="sourcePoint" />
            <mxPoint x="573.5" y="532" as="targetPoint" />
          </mxGeometry>
        </mxCell>
        <mxCell id="9JRsw504FIrq7UwuTLi8-4" value="" style="endArrow=none;html=1;rounded=0;entryX=0.5;entryY=1;entryDx=0;entryDy=0;entryPerimeter=0;exitX=0.5;exitY=0;exitDx=0;exitDy=0;" edge="1" parent="1" source="9JRsw504FIrq7UwuTLi8-6" target="9JRsw504FIrq7UwuTLi8-1">
          <mxGeometry width="50" height="50" relative="1" as="geometry">
            <mxPoint x="626" y="406" as="sourcePoint" />
            <mxPoint x="676" y="356" as="targetPoint" />
          </mxGeometry>
        </mxCell>
        <mxCell id="9JRsw504FIrq7UwuTLi8-6" value="Cisco SG300&lt;div&gt;(10GE)&lt;/div&gt;" style="rounded=1;whiteSpace=wrap;html=1;" vertex="1" parent="1">
          <mxGeometry x="490" y="235" width="120" height="60" as="geometry" />
        </mxCell>
        <mxCell id="9JRsw504FIrq7UwuTLi8-7" value="pve-1&lt;div&gt;(HP Prodesk)&lt;/div&gt;" style="whiteSpace=wrap;html=1;aspect=fixed;" vertex="1" parent="1">
          <mxGeometry x="645" y="135" width="80" height="80" as="geometry" />
        </mxCell>
        <mxCell id="9JRsw504FIrq7UwuTLi8-8" value="pve-2&lt;div&gt;(HP Prodesk)&lt;/div&gt;" style="whiteSpace=wrap;html=1;aspect=fixed;" vertex="1" parent="1">
          <mxGeometry x="645" y="225" width="80" height="80" as="geometry" />
        </mxCell>
        <mxCell id="9JRsw504FIrq7UwuTLi8-9" value="pve-3&lt;div&gt;(HP Prodesk)&lt;/div&gt;" style="whiteSpace=wrap;html=1;aspect=fixed;" vertex="1" parent="1">
          <mxGeometry x="645" y="315" width="80" height="80" as="geometry" />
        </mxCell>
        <mxCell id="9JRsw504FIrq7UwuTLi8-10" value="" style="endArrow=none;html=1;rounded=0;entryX=1;entryY=0;entryDx=0;entryDy=0;exitX=0;exitY=0.5;exitDx=0;exitDy=0;" edge="1" parent="1" source="9JRsw504FIrq7UwuTLi8-7" target="9JRsw504FIrq7UwuTLi8-6">
          <mxGeometry width="50" height="50" relative="1" as="geometry">
            <mxPoint x="546" y="416" as="sourcePoint" />
            <mxPoint x="596" y="366" as="targetPoint" />
          </mxGeometry>
        </mxCell>
        <mxCell id="9JRsw504FIrq7UwuTLi8-11" value="" style="endArrow=none;html=1;rounded=0;entryX=1;entryY=0.5;entryDx=0;entryDy=0;exitX=0;exitY=0.5;exitDx=0;exitDy=0;" edge="1" parent="1" source="9JRsw504FIrq7UwuTLi8-8" target="9JRsw504FIrq7UwuTLi8-6">
          <mxGeometry width="50" height="50" relative="1" as="geometry">
            <mxPoint x="692" y="185" as="sourcePoint" />
            <mxPoint x="620" y="245" as="targetPoint" />
          </mxGeometry>
        </mxCell>
        <mxCell id="9JRsw504FIrq7UwuTLi8-12" value="" style="endArrow=none;html=1;rounded=0;entryX=1;entryY=1;entryDx=0;entryDy=0;exitX=0;exitY=0.5;exitDx=0;exitDy=0;" edge="1" parent="1" source="9JRsw504FIrq7UwuTLi8-9" target="9JRsw504FIrq7UwuTLi8-6">
          <mxGeometry width="50" height="50" relative="1" as="geometry">
            <mxPoint x="692" y="275" as="sourcePoint" />
            <mxPoint x="620" y="275" as="targetPoint" />
          </mxGeometry>
        </mxCell>
        <mxCell id="9JRsw504FIrq7UwuTLi8-13" value="TrueNAS Scale&lt;div&gt;(PC)&lt;/div&gt;" style="whiteSpace=wrap;html=1;aspect=fixed;" vertex="1" parent="1">
          <mxGeometry x="510" y="336" width="80" height="80" as="geometry" />
        </mxCell>
        <mxCell id="9JRsw504FIrq7UwuTLi8-14" value="" style="endArrow=none;html=1;rounded=0;entryX=0.5;entryY=1;entryDx=0;entryDy=0;exitX=0.5;exitY=0;exitDx=0;exitDy=0;" edge="1" parent="1" source="9JRsw504FIrq7UwuTLi8-13" target="9JRsw504FIrq7UwuTLi8-6">
          <mxGeometry width="50" height="50" relative="1" as="geometry">
            <mxPoint x="561" y="355" as="sourcePoint" />
            <mxPoint x="479" y="375" as="targetPoint" />
          </mxGeometry>
        </mxCell>
        <mxCell id="9JRsw504FIrq7UwuTLi8-15" value="Nest Router" style="shape=cylinder3;whiteSpace=wrap;html=1;boundedLbl=1;backgroundOutline=1;size=15;" vertex="1" parent="1">
          <mxGeometry x="305" y="6" width="60" height="80" as="geometry" />
        </mxCell>
        <mxCell id="9JRsw504FIrq7UwuTLi8-16" value="" style="endArrow=none;html=1;rounded=0;entryX=0;entryY=0.5;entryDx=0;entryDy=0;exitX=1;exitY=0.5;exitDx=0;exitDy=0;exitPerimeter=0;" edge="1" parent="1" source="9JRsw504FIrq7UwuTLi8-15" target="9JRsw504FIrq7UwuTLi8-2">
          <mxGeometry width="50" height="50" relative="1" as="geometry">
            <mxPoint x="608" y="312" as="sourcePoint" />
            <mxPoint x="658" y="262" as="targetPoint" />
          </mxGeometry>
        </mxCell>
      </root>
    </mxGraphModel>
  </diagram>
</mxfile>
